<svg width="25" height="25" viewBox="0 0 25 25" fill="none" xmlns="http://www.w3.org/2000/svg">
<path d="M12.4918 25C12.3658 25 12.2387 24.9698 12.1242 24.9083L0.414256 18.6583C0.159059 18.5218 0.000732422 18.2572 0.000732422 17.9687V6.77066C0.000732422 6.49878 0.142393 6.24669 0.373633 6.10398C0.607997 5.96231 0.895484 5.9519 1.13714 6.07482L12.847 12.0645C13.1085 12.1978 13.2731 12.4665 13.2731 12.7603V24.2187C13.2731 24.4937 13.1293 24.7479 12.8939 24.8885C12.77 24.9625 12.6314 25 12.4918 25V25ZM1.56316 17.4999L11.7106 22.9166V13.2384L1.56316 8.04775V17.4999Z" fill="#CCCCCE"/>
<path d="M12.5083 25C12.3687 25 12.2302 24.9625 12.1062 24.8885C11.8708 24.7479 11.7271 24.4937 11.7271 24.2187V12.7603C11.7271 12.4665 11.8916 12.1978 12.1531 12.0645L23.863 6.07482C24.1057 5.9519 24.3942 5.96231 24.6265 6.10398C24.8588 6.24565 24.9994 6.49878 24.9994 6.77066V17.9687C24.9994 18.2572 24.8411 18.5218 24.5859 18.6583L12.876 24.9083C12.7603 24.9698 12.6343 25 12.5083 25V25ZM13.2895 13.2384V22.9166L23.437 17.4999V8.04775L13.2895 13.2384ZM24.2182 17.9687H24.2286H24.2182Z" fill="#CCCCCE"/>
<path d="M24.2177 7.5519C24.0979 7.5519 23.9771 7.52482 23.8625 7.46648L12.5078 1.65809L1.13644 7.46648C0.753124 7.66336 0.282312 7.51023 0.0854457 7.12585C-0.110379 6.74147 0.0416976 6.27168 0.426056 6.0748L12.1526 0.0851571C12.3766 -0.0283857 12.6411 -0.0283857 12.864 0.0851571L24.5739 6.0748C24.9583 6.27168 25.1104 6.74252 24.9146 7.12585C24.775 7.39669 24.501 7.5519 24.2177 7.5519V7.5519Z" fill="#CCCCCE"/>
<path d="M18.2287 16.4062C17.7975 16.4062 17.4475 16.0562 17.4475 15.6249V10.378L5.97298 4.63624C5.58758 4.44249 5.43134 3.97269 5.62404 3.58727C5.81778 3.20185 6.28859 3.04664 6.67191 3.23831L18.5776 9.19671C18.8433 9.33005 19.0099 9.59984 19.0099 9.89568V15.6249C19.0099 16.0562 18.6599 16.4062 18.2287 16.4062Z" fill="#CCCCCE"/>
</svg>
