<svg width="25" height="25" viewBox="0 0 25 25" fill="none" xmlns="http://www.w3.org/2000/svg">
<path d="M22.5 5.26316H19.775C19.9125 4.85526 20 4.40789 20 3.94737C20 1.76316 18.325 0 16.25 0C14.9375 0 13.8 0.710526 13.125 1.77632L12.5 2.65789L11.875 1.76316C11.2 0.710526 10.0625 0 8.75 0C6.675 0 5 1.76316 5 3.94737C5 4.40789 5.0875 4.85526 5.225 5.26316H2.5C1.1125 5.26316 0.0125 6.43421 0.0125 7.89474L0 22.3684C0 23.8289 1.1125 25 2.5 25H22.5C23.8875 25 25 23.8289 25 22.3684V7.89474C25 6.43421 23.8875 5.26316 22.5 5.26316ZM16.25 2.63158C16.9375 2.63158 17.5 3.22368 17.5 3.94737C17.5 4.67105 16.9375 5.26316 16.25 5.26316C15.5625 5.26316 15 4.67105 15 3.94737C15 3.22368 15.5625 2.63158 16.25 2.63158ZM8.75 2.63158C9.4375 2.63158 10 3.22368 10 3.94737C10 4.67105 9.4375 5.26316 8.75 5.26316C8.0625 5.26316 7.5 4.67105 7.5 3.94737C7.5 3.22368 8.0625 2.63158 8.75 2.63158ZM22.5 22.3684H2.5V19.7368H22.5V22.3684ZM22.5 15.7895H2.5V7.89474H8.85L6.25 11.6184L8.275 13.1579L11.25 8.89474L12.5 7.10526L13.75 8.89474L16.725 13.1579L18.75 11.6184L16.15 7.89474H22.5V15.7895Z" fill="#CCCCCE"/>
</svg>
