<svg width="37" height="34" viewBox="0 0 37 34" fill="none" xmlns="http://www.w3.org/2000/svg">
<path d="M0.33486 26.259C0.444074 26.0809 0.619271 26.0695 0.862726 26.2247C6.37802 29.4342 12.3802 31.0412 18.8671 31.0412C23.1901 31.0412 27.4608 30.2308 31.6769 28.6147L32.1547 28.4161C32.364 28.3248 32.5119 28.2609 32.6007 28.2175C32.942 28.0851 33.1922 28.149 33.397 28.4161C33.579 28.6809 33.5335 28.9251 33.215 29.1465C32.8282 29.4342 32.3049 29.7674 31.6906 30.1418C29.8021 31.2717 27.6861 32.146 25.3425 32.7669C23.0217 33.3832 20.7237 33.6959 18.4939 33.6959C15.0582 33.6959 11.8046 33.091 8.73294 31.8857C5.6613 30.6805 2.92868 28.9799 0.49413 26.7885C0.33486 26.6812 0.266602 26.5671 0.266602 26.4575C0.266602 26.3891 0.289354 26.3251 0.33486 26.259ZM10.2915 16.7973C10.2915 15.2679 10.6669 13.9622 11.4178 12.8779C12.1686 11.7936 13.1925 10.9741 14.5122 10.4195C15.7181 9.91042 17.1742 9.54519 18.9262 9.32377C19.5178 9.25529 20.4962 9.16855 21.8386 9.05898V8.49516C21.8386 7.0799 21.6793 6.12574 21.3835 5.64181C20.9285 4.97527 20.2004 4.642 19.1992 4.642H18.9239C18.1958 4.71048 17.5656 4.93875 17.0354 5.3405C16.5053 5.75138 16.164 6.29922 16.0116 7.00685C15.9206 7.46339 15.6999 7.71448 15.3517 7.78296L11.5293 7.3036C11.1538 7.21229 10.965 7.02968 10.965 6.7101C10.965 6.64162 10.9764 6.57314 10.9991 6.48184C11.3745 4.51873 12.296 3.05782 13.7613 2.09909C15.2402 1.1632 16.9467 0.615355 18.9035 0.501221H19.7226C22.2254 0.501221 24.2049 1.1632 25.6155 2.46432C25.8203 2.69259 26.0251 2.92086 26.2299 3.19478C26.4119 3.44587 26.5712 3.67414 26.6622 3.87958C26.7759 4.08502 26.8897 4.38177 26.958 4.747C27.049 5.13506 27.1172 5.38615 27.1627 5.52311C27.2082 5.6829 27.2538 5.97965 27.2765 6.45901C27.2993 6.93837 27.322 7.21229 27.322 7.3036V15.3386C27.322 15.9093 27.413 16.4343 27.5723 16.9137C27.7316 17.393 27.8908 17.7354 28.0501 17.9409L28.8237 18.9681C28.9602 19.1735 29.0285 19.3561 29.0285 19.5159C29.0285 19.6985 28.9375 19.8583 28.7554 19.9953C26.9352 21.5932 25.9341 22.4606 25.7748 22.5975C25.5245 22.803 25.206 22.8258 24.8192 22.666C24.5234 22.4149 24.2504 22.1638 24.0228 21.9127L23.545 21.3877C23.454 21.2736 23.2948 21.0681 23.0672 20.7486L22.6122 20.0866C21.3835 21.4334 20.1776 22.278 18.9717 22.6204C18.2209 22.8486 17.3108 22.9628 16.1959 22.9628C14.5122 22.9628 13.1015 22.4377 12.0093 21.3877C10.9172 20.3377 10.3711 18.8539 10.3711 16.9137L10.2915 16.7973ZM15.9843 16.1307C15.9843 16.9936 16.1981 17.6829 16.6282 18.2079C17.0605 18.7261 17.6521 18.9841 18.3801 18.9841C18.4484 18.9841 18.5394 18.9749 18.6759 18.9544C18.8124 18.9316 18.8807 18.9201 18.9262 18.9201C19.8591 18.6759 20.5644 18.0801 21.0877 17.1282C21.338 16.7059 21.52 16.2471 21.6338 15.7495C21.7703 15.2701 21.8158 14.8593 21.8386 14.5397C21.8613 14.2429 21.8613 13.7179 21.8613 13.0103V12.1885C20.5872 12.1885 19.6088 12.2798 18.949 12.4624C17.015 13.0103 16.0366 14.2429 16.0366 16.1604L15.9843 16.1307ZM29.8817 26.8228C29.9272 26.7315 29.9955 26.6447 30.0797 26.5557C30.6325 26.1813 31.1627 25.9257 31.6724 25.7933C32.5074 25.5878 33.3242 25.4509 34.1183 25.4281C34.339 25.4052 34.5506 25.4281 34.7463 25.4737C35.7406 25.565 36.339 25.7248 36.5346 25.9759C36.6256 26.1129 36.6666 26.3183 36.6666 26.5694V26.7977C36.6666 27.5738 36.4573 28.4868 36.0386 29.5369C35.6177 30.5869 35.0329 31.4315 34.2867 32.0935C34.1729 32.1848 34.0751 32.2304 33.9863 32.2304C33.9408 32.2304 33.8953 32.2304 33.8544 32.2076C33.7178 32.1391 33.6883 32.025 33.7542 31.8424C34.5733 29.9249 34.9783 28.5782 34.9783 27.8249C34.9783 27.5966 34.9328 27.414 34.8464 27.2999C34.6257 27.0488 34.0091 26.9118 32.992 26.9118C32.6189 26.9118 32.1775 26.9346 31.6724 26.9803C31.1172 27.0488 30.6098 27.1172 30.1479 27.1857C30.0114 27.1857 29.9272 27.1629 29.8817 27.1172C29.8362 27.0716 29.8271 27.0488 29.8499 27.0031C29.8499 26.9803 29.859 26.9574 29.8817 26.9118V26.8228Z" fill="#FF9900"/>
</svg>
